<svg xmlns="http://www.w3.org/2000/svg" viewBox="0 0 64 64" role="img" aria-hidden="true">
  <defs>
    <linearGradient id="body" x1="14" y1="54" x2="54" y2="8" gradientUnits="userSpaceOnUse">
      <stop offset="0" stop-color="#0a75a9"/>
      <stop offset="1" stop-color="#0789c1"/>
    </linearGradient>
    <linearGradient id="flame" x1="9" y1="58" x2="22" y2="43" gradientUnits="userSpaceOnUse">
      <stop offset="0" stop-color="#0a628f" stop-opacity=".45"/>
      <stop offset="1" stop-color="#13a3d8"/>
    </linearGradient>
    <filter id="glow" x="-60%" y="-60%" width="220%" height="220%">
      <feGaussianBlur stdDeviation="2.7" result="blur"/>
      <feFlood flood-color="#008fd0" flood-opacity=".62" result="color"/>
      <feComposite in="color" in2="blur" operator="in" result="soft"/>
      <feMerge><feMergeNode in="soft"/><feMergeNode in="SourceGraphic"/></feMerge>
    </filter>
  </defs>
  <g filter="url(#glow)">
    <path d="M18 43.5C22.4 29.2 34.2 13.7 51.5 7.4c2.8-1 5.3 1.1 5.1 4.1-1.1 18.2-9.6 33-24.2 41.5L18 43.5Z" fill="url(#body)" stroke="#0877aa" stroke-width="1.2" stroke-linejoin="round"/>
    <path d="M19.8 34.9C12.6 36.2 7.7 40.8 5.1 48.7c-.8 2.3 1.2 4.3 3.4 3.3l12.3-5.8 3.4-9.5-4.4-1.8Z" fill="#0877aa" stroke="#086c9b" stroke-width="1.1" stroke-linejoin="round"/>
    <path d="m30.8 51.4 3.1 9.1c.8 2.4 3.8 2.8 5.2.7 4.2-6.2 5.8-12 4.9-17.8l-3.7-2.1-9.5 10.1Z" fill="#0877aa" stroke="#086c9b" stroke-width="1.1" stroke-linejoin="round"/>
    <path d="M18.3 45.4c-4.8 3.1-8.7 7.4-11.5 13-.9 1.8.9 3.7 2.8 3 5.8-2.4 10.2-6.1 13.3-11l-4.6-5Z" fill="url(#flame)" stroke="#086c9b" stroke-width="1" stroke-linejoin="round"/>
    <circle cx="39.2" cy="25.1" r="5.2" fill="#0a6f9f" stroke="#0a86bb" stroke-width="1.1"/>
  </g>
</svg>
